<svg xmlns="http://www.w3.org/2000/svg" width="200" height="200" fill="none" viewBox="0 0 200 200">
<!-- SVG created with Arrow, by QuiverAI (https://quiver.ai) -->
  <path d="m173 132.4-0.52-11.99 2.28-1.12 0.32-9.18 3.33 1.04-0.82-10.94 1.7-2.88-0.88-12.61-2.62-10.61 3.95 3.43-3.33-10.94 1.53-2.79-7.74-13.2 3.24-5.3-3.33-1.87-6.21-10.76-11.03-10.52-5.86-7.05-3.51-1.78-8.09-0.85-3.51-4.19-3.51-0.76-6.39 0.76-7.47-3.29-7.48 0.66-5.25 0.95-5.77-0.95h-7.47l-4.7 1.41-6.12-0.76-4.52 1.98-1.17 1.59-10.18 0.45-3.07 3.61-0.01 1.17-9.33 4.92-5.5 2.79-6.39 7.59-7.47 5.73-4.8 8.02 3.69-0.85-3.69 6.6 4.8-1.69-7.48 11.64-0.97 3.05 5.16-7.8-6.92 24.69 2.02-4.82-1.79 24.88 2.71-7.8 1.79 16.85-0.83 11.98 3.15 4.01 0.83 4.37-7.22 12.61-8.85 25.38 1.53 1.05-4.25 19.46v4.65l1.88-6.19-0.83 13.77h181l-0.1-7.58-0.97-9.36 1.61-1.25-4.25-18.17-1.06-4.56 1.53 0.95-5.44-12.7-9.3-14.93z" fill="url(#paint0_linear_2002_28200)"/>
  <path d="m160.1 133.9 10.36 8.29 7.87 7.93 7.96 14 2.03 9.99-1.3-2.06 2.71 14.65-2.11-3.89 0.83 9.99-5.43-15.19 2.45 22.39h-8.3l-6.92-7.29-6.92-11.98-3.15 0.45-3.95 9.99-3.51 8.83h-8.85l5.86-20.43-1.31-9.36-6.29-3.34-4.11-3.5-4.15 9.53 5.35 18.14-2.61 8.96h-7.47l-6.48-13.29-3.51-7.59-5.16-5.72-6.83 4.73 0.97 9.99-5.25 8.59-4.61-1.88-5.25-6.2-5.54-6.63-4.43 4.16-2.88 10.55-5.25 3.29h-8.47l-1.53-7.2-5.25 0.94-7.47 6.26h-7.96l4.7-26.88-1.88-3.25-6.39 8.02-6.48 18.17-3.15 3.94h-5.25l2.02-11.98-5.95-6.71-5.86 9.36-2.62 9.33-2.8-0.67 2.72-16.85 1.39-11.17 3.95-5.9 4.34-9.65 7.97-13.7-1.71-9.01 3.51-6.1 7.48-11.17-1.17-13.69 5.01-11.17 4.87-10.61 9.51-9.99 11.12-2.06 14.75 1.61 13.46 0.45 15.01-2.88 17.5 2.88 12.7 1.5 12.21 12.52 4.79 8.38-0.82 8.11 8.85 6.28 6.83 6.28-1.13 8.59-1.05 7.05 0.36 3.37 5.41 7.37-1.18 4.3-4.23-1.88-9.91-5.24-3.02-3.05z" fill="url(#paint1_linear_2002_28200)"/>
  <path d="m13.41 181.2 6.39-2.06 8.85-5.72 8.43-1.44 5.53-4.7 4.08-5.98" stroke="#484848" stroke-miterlimit="10" stroke-width=".7"/>
  <path d="m13.92 175.2c2.53 1.78 7.14 1.78 12.22-1.76 5.53-3.89 13.97-7.69 15.45-15.28" stroke="#484848" stroke-miterlimit="10" stroke-width=".7"/>
  <path d="m14.51 170.1c2.71 1.04 5.68 0.09 7.97-1.81 4.34-3.44 14.18-12.55 16.8-20.26" stroke="#484848" stroke-miterlimit="10" stroke-width=".7"/>
  <path d="m16.04 162.9 5.93-11.16 8.07-6.96" stroke="#484848" stroke-miterlimit="10" stroke-width=".3"/>
  <path d="m17.01 151.8 2.62-7.35 6.83-6.28" stroke="#484848" stroke-miterlimit="10" stroke-width=".3"/>
  <path d="m20.32 143.3 1.79 3.8 3.51 0.21 5.44-5.26 2.62-4.65" stroke="#484848" stroke-miterlimit="10" stroke-width=".3"/>
  <path d="m23.11 144.1 4.35-2.66 2.62-3.55" stroke="#484848" stroke-miterlimit="10" stroke-width=".3"/>
  <path d="m18.28 158.9c2.99-1.14 10.46-8.85 13.53-14.47" stroke="#484848" stroke-miterlimit="10" stroke-width=".7"/>
  <path d="m18.02 168.3 2.96-8.19 0.96 3.34" stroke="#484848" stroke-miterlimit="10" stroke-width=".5"/>
  <path d="m22.28 162.6 1.44-5.54 1.54 2.43" stroke="#484848" stroke-miterlimit="10" stroke-width=".5"/>
  <path d="m25.52 157.4 2.43-3.21 0.97 2.67" stroke="#484848" stroke-miterlimit="10" stroke-width=".5"/>
  <path d="m29.12 153.4 2.1-3.38 1.79 1.78" stroke="#484848" stroke-miterlimit="10" stroke-width=".5"/>
  <path d="m32.37 149.2 1.31-3.02 2.62 0.45" stroke="#484848" stroke-miterlimit="10" stroke-width=".5"/>
  <path d="m37.17 153.1-4.35 2.79 3.95 3.39" stroke="#484848" stroke-miterlimit="10" stroke-width=".5"/>
  <path d="m37.68 151.3 0.96 1.49" stroke="#484848" stroke-miterlimit="10" stroke-width=".3"/>
  <path d="m43.97 151.3-0.83-2.11" stroke="#484848" stroke-miterlimit="10" stroke-width=".3"/>
  <path d="m45.76 164.1-1.53-0.22" stroke="#484848" stroke-miterlimit="10" stroke-width=".3"/>
  <path d="m187.4 181.2-6.39-2.06-8.85-5.72-8.44-1.44-5.52-4.7-4.7-6.65" stroke="#484848" stroke-miterlimit="10" stroke-width=".7"/>
  <path d="m186.9 175.2c-2.53 1.78-7.14 1.78-12.22-1.76-5.53-3.89-13.97-7.69-15.45-15.28" stroke="#484848" stroke-miterlimit="10" stroke-width=".7"/>
  <path d="m188.3 174.2c-1.44-3.54-1.9-6.11-3.07-7.94" stroke="#484848" stroke-miterlimit="10" stroke-width=".3"/>
  <path d="m187.3 159.3c-2.28-1.22-6.53-4.43-11.23-11.38" stroke="#484848" stroke-miterlimit="10" stroke-width=".3"/>
  <path d="m178.3 147c0.91-0.31 0.82-2.14 0.59-3.3" stroke="#484848" stroke-miterlimit="10" stroke-width=".3"/>
  <path d="m177.8 144.1c-1.88 0.59-5.66-1.88-9.08-6.21" stroke="#484848" stroke-miterlimit="10" stroke-width=".7"/>
  <path d="m176.9 142.7-3.83-3.65" stroke="#484848" stroke-miterlimit="10" stroke-width=".3"/>
  <path d="m185.4 160c-3.15-1.15-11.5-7.8-15.25-13.39" stroke="#484848" stroke-miterlimit="10" stroke-width=".7"/>
  <path d="m184.6 168.3-1.45-7.25-2.02 5.2-4-9.36" stroke="#484848" stroke-miterlimit="10" stroke-width=".5"/>
  <path d="m176.1 155-2.98 4.48" stroke="#484848" stroke-miterlimit="10" stroke-width=".5"/>
  <path d="m171.1 152.8-0.98 3.31 2.98-1.89" stroke="#484848" stroke-miterlimit="10" stroke-width=".5"/>
  <path d="m167.2 149.2 2.88 0.82" stroke="#484848" stroke-miterlimit="10" stroke-width=".5"/>
  <path d="m161.4 144.1 2.29 2.57" stroke="#484848" stroke-miterlimit="10" stroke-width=".5"/>
  <path d="m159.3 152.5 1.79-2.51" stroke="#484848" stroke-miterlimit="10" stroke-width=".3"/>
  <path d="m162.5 158.9 1.79-2.76" stroke="#484848" stroke-miterlimit="10" stroke-width=".5"/>
  <path d="m168.1 162.3-0.44 4.3 2.1-2.97-1.66-1.33z" stroke="#484848" stroke-miterlimit="10" stroke-width=".5"/>
  <path d="m172.4 167.4 1.3 3.96 2.02-2.25v3.08" stroke="#484848" stroke-miterlimit="10" stroke-width=".5"/>
  <path d="m177.9 171v3.33" stroke="#484848" stroke-miterlimit="10" stroke-width=".5"/>
  <path d="m181.9 172.9 0.74 3.12" stroke="#484848" stroke-miterlimit="10" stroke-width=".3"/>
  <path d="m184.5 173.4 0.83 4.49" stroke="#484848" stroke-miterlimit="10" stroke-width=".3"/>
  <path d="m25.16 179.9 2.79 6.78 1.28-2.79-1.77-4.8-2.3 0.81z" stroke="#000" stroke-miterlimit="10" stroke-width=".7"/>
  <path d="m173.5 180.4-2.97 5.9v2.35l2.44-2.35 1.75-4.65-1.22-1.25z" stroke="#000" stroke-miterlimit="10" stroke-width=".7"/>
  <path d="m155.3 175.9 2.71 10.8-0.83 4" stroke="#000" stroke-miterlimit="10" stroke-width=".5"/>
  <path d="m157.8 179 0.83 3.22" stroke="#000" stroke-miterlimit="10" stroke-width=".5"/>
  <path d="m161.7 186.7 2.97 12.97" stroke="#000" stroke-miterlimit="10" stroke-width=".7"/>
  <path d="m162.9 189.3-1.79 5.3 1.79 5.11" stroke="#000" stroke-miterlimit="10" stroke-width=".7"/>
  <path d="m36.52 175.2-6.21 24.84" stroke="#484848" stroke-miterlimit="10" stroke-width=".7"/>
  <path d="m38.89 176.8-0.25 7.59" stroke="#484848" stroke-miterlimit="10" stroke-width=".7"/>
  <path d="m40.78 177.5-0.12 5.03" stroke="#484848" stroke-miterlimit="10" stroke-width=".7"/>
  <path d="m36.52 184.8-2.1 8.89v4.2" stroke="#484848" stroke-miterlimit="10" stroke-width=".7"/>
  <path d="m37.68 188.6-1.53 5.38" stroke="#484848" stroke-miterlimit="10" stroke-width=".7"/>
  <path d="m53.23 173.4 2.71 9.99 4.8 1.01" stroke="#484848" stroke-miterlimit="10" stroke-width=".3"/>
  <path d="m58.91 169.9 2.28 4.73-0.45 17.2" stroke="#484848" stroke-miterlimit="10" stroke-width=".3"/>
  <path d="m65.12 156.2 4.61 14.45 6.3 8.46 1.06 11.55-4.43 4.65 5.77 4.68" stroke="#484848" stroke-miterlimit="10" stroke-width=".3"/>
  <path d="m80.33 165.9 0.74 13.7 5.77 1.4 4.34 7.62 0.66-10.42 6.92-7.16 2.71-9.99 3.71 6.2 2.88 7.12 4.8-1.87 5.02 6.61 1.26 6.2 2.97 7.89" stroke="#484848" stroke-miterlimit="10" stroke-width=".3"/>
  <path d="m129.1 174.2 3.33 1.86 0.6 3.87 6.56 3.13 5.54-3.13 1.36 9.25-5.25 6.28" stroke="#484848" stroke-miterlimit="10" stroke-width=".3"/>
  <path d="m64.21 191.2-6.08 2.57-4.11 4.74" stroke="#484848" stroke-miterlimit="10" stroke-width=".7"/>
  <path d="m53.14 190.7-5.43 6.04" stroke="#484848" stroke-miterlimit="10" stroke-width=".7"/>
  <path d="m20.06 184.4-3.94 12.31" stroke="#484848" stroke-miterlimit="10" stroke-width=".3"/>
  <path d="m23.11 183.1-2.29 12.87" stroke="#484848" stroke-miterlimit="10" stroke-width=".3"/>
  <path d="m19.01 177.2-1.39 5.32" stroke="#484848" stroke-miterlimit="10" stroke-width=".3"/>
  <path d="m16.38 173.8-0.26 1.79" stroke="#484848" stroke-miterlimit="10" stroke-width=".3"/>
  <path d="m20.98 173.4 1.3-4.34 0.83 5.14" stroke="#484848" stroke-miterlimit="10" stroke-width=".5"/>
  <path d="m24.49 168.6 1.13 3.34 1.13-4.7" stroke="#484848" stroke-miterlimit="10" stroke-width=".5"/>
  <path d="m28.35 165.1 2.21-1.19 0.25 3.36" stroke="#484848" stroke-miterlimit="10" stroke-width=".5"/>
  <path d="m54.11 167.3 2.1-2.17" stroke="#FFD978" stroke-miterlimit="10" stroke-width=".7"/>
  <path d="m73.11 181.6v-2.64" stroke="#F7D054" stroke-miterlimit="10" stroke-width=".7"/>
  <path d="m132 189.8v-2.21" stroke="#FFDA79" stroke-miterlimit="10" stroke-width="1.4"/>
  <path d="m130.9 176.9v-1.87" stroke="#FFDA79" stroke-miterlimit="10" stroke-width=".7"/>
  <path d="m131.7 157.9 4.43-3.43" stroke="#F7D054" stroke-miterlimit="10" stroke-width="1.4"/>
  <path d="m164.2 134.1 2.1 0.66" stroke="#F7D054" stroke-miterlimit="10" stroke-width=".7"/>
  <path d="m166.5 127.8 1.3-0.53" stroke="#F7D054" stroke-miterlimit="10" stroke-width=".7"/>
  <path d="m162.6 118.2 5.35-1.4" stroke="#F7D054" stroke-miterlimit="10" stroke-width=".7"/>
  <path d="m150.6 107.1 3.61 0.36 10.02 1.49" stroke="#F7D054" stroke-miterlimit="10" stroke-width="1.4"/>
  <path d="m159.2 92.72 6.96 6.37 4.8 1.92" stroke="#F7D054" stroke-miterlimit="10" stroke-width="1.4"/>
  <path d="m166.7 78.11 6.3 6.23 4.79 6.67" stroke="#F7D054" stroke-miterlimit="10" stroke-width=".7"/>
  <path d="m167.2 67.44 4.11 0.82 3.67 5.72" stroke="#F7D054" stroke-miterlimit="10" stroke-width=".7"/>
  <path d="m163 49.12 2.45-0.9 5.43 7.15" stroke="#F7D054" stroke-miterlimit="10" stroke-width="1.4"/>
  <path d="m157.2 36.14 6.72 2.78 3.95 7.15" stroke="#F7D054" stroke-miterlimit="10" stroke-width="1.4"/>
  <path d="m139.2 25.53 7.47 0.95 2.45 3.44" stroke="#F7D054" stroke-miterlimit="10" stroke-width="1.4"/>
  <path d="m128.3 14.12 8.34-1.31 7.56 2.3" stroke="#F7D054" stroke-miterlimit="10" stroke-width=".7"/>
  <path d="m125.6 9.01 3.33 0.87" stroke="#F7D054" stroke-miterlimit="10" stroke-width=".7"/>
  <path d="m109.4 6.31 5.86 1.22 4.8 3.53 5.53-0.85 4.34 1.59" stroke="#F7D054" stroke-miterlimit="10" stroke-width=".7"/>
  <path d="m87.41 6.61 7.97 0.46 4.7 2.35 3.24-1.49 5.62-1.32" stroke="#F7D054" stroke-miterlimit="10" stroke-width=".7"/>
  <path d="m75.08 7.93 2.54 0.36 3.69 2.04 3.42-2.4" stroke="#F7D054" stroke-miterlimit="10" stroke-width=".7"/>
  <path d="m62.42 11.06 4.02 0.14 4.62 2.13 2.02-3.45" stroke="#F7D054" stroke-miterlimit="10" stroke-width=".7"/>
  <path d="m46.53 20.78 4.7-2.06 5.86 0.54 4.14-4.15 6.74-1.78 5.11 0.79 4.01-5.11 5.03 4.32 2.61-5.4 5.95 1.08 4.7 2.05 2.45 3.06 3.33-6.19 3.86 3.13 6.39-3.99 5.16 3.26 5.54-0.12 4.03-1.2 2.99 3.47 2.02 1.64-6.39-0.79-5.62 2.79-3.89-4.32-3.06 3.31-8.06-0.99-3.51 12.36-2.53-4.74-8.63-9.94-3.85 0.68 1.8 6.78-7.08-8.2-2.29 5.9-6.39-5.9-6.39 1.42-4.7 1.64" stroke="#F7D054" stroke-miterlimit="10" stroke-width=".7"/>
  <path d="m43.02 24.66 5.77-2.59 5.86-0.85 4.7 2.66 6.92-3.5 6.39 1.36 3.86-2.48 4.34 2.81 2.97-1.69 3.95 3.5 5.23 0.78 4.8 10.56 5.5-9.69 5.25-1.65 5.16-3.5 4.96 1.36 6.21-1.36 5.25 2.53 6.96-0.84 6.76 1.81 6.92 1.65 5.53 3.17-6.09 4.31-8.1 1.41-8.93-1.74-6.75-7.15h-9.42l-9.87 7.15-9.02 3.28-8.67-9.48-12.94-2.6-12.1 0.78-6.92 1.82-7.48 6.2-8.85-2.27-1.53-2.43 3.38-3.32z" fill="url(#paint2_linear_2002_28200)"/>
  <path d="m27.88 20.03 6.83 4.63 9.52 5.75 17 4.81 9.52 4.15 16.09 9.66 3.95 8.95 7.12-1.32 6.83 0.36 3.95-8.55 16.24-10.61 10.09-4.74 16.25-4.64 12.05-4.37 6.4-4.08-1.79 5.03-5.53 7.62-8.89 6.33-3.69 1 5.44 1.21 6.92 10.99 2.97 9.9-1.23 1.7 1.7 5.11-1.16 5.15 0.69 2.79-2.02 2.35 0.55 4.91-3.42 4.83-0.09 5.16-2.28 3.22v2.44l-2.63 1.06-0.15 1.53-2.4 0.72-1.53 2.93-3.25 0.62-2.02 4.34-3.79 0.62-2.1 3.53-3.51-1.91-3.06 3.7-5.04 1.7-4.1-2.7-2.2 4.05-4.95 0.85-2.44 3.26-3.24-1.45-6.39 2.24-2.22-2.24-3.85 2.79-4.1-0.55-5.86-1.74-3.51 5.16-2.02-2.87-2.97 1.9-4.7-7.35-5.11 0.85-4.7-0.8-0.79-2.79-4.07 1.39-6.12-3.49-0.42-2.7-3.59 1.31-2.53-3.68-2.62-0.82-0.6-3.22-2.44-0.71-5.79-9.18 0.97-2.61-3.87-6.28 1.88-2.2-3.69-8.17 1.05-1.96-1.44-3.44 1.3-4.86-0.91-1.59 2.79-10.85 4.48-14.41 5.53-2.48-7.12-4.06-6.92-7.3-3.25-5.88z" fill="url(#paint3_linear_2002_28200)"/>
  <path d="m29.01 22.64 5.61 4.27 10.05 6.81 9.84 2.9 4.53 1.99-2.93-0.48-8.4-1.99-11.19-6.53-7.51-6.97z" fill="url(#paint4_linear_2002_28200)" stroke="#261A11" stroke-miterlimit="10" stroke-width=".7"/>
  <path d="m168.7 22.64-6.74 6.06-11.5 7.44-11.34 4.18-4.06 0.31 7.96-2.5 10.94-3.93 10-7.29 4.74-4.27z" fill="url(#paint5_linear_2002_28200)" stroke="#261A11" stroke-miterlimit="10" stroke-width=".7"/>
  <path d="m48.93 32.68 11.19 2.28 7.3 2.35 6.74 5.21 7.96 3.46-9.2-4.76-6.65-3.91-7.83-1.17-9.51-3.46z" fill="url(#paint6_linear_2002_28200)" stroke="#261A11" stroke-miterlimit="10" stroke-width=".7"/>
  <path d="m149.2 32.68-11.55 2.63-6.93 2.55-6.51 5.76-9.33 4.85 9.87-5.95 6.96-5.9 6.29-1.4 11.2-2.54z" fill="url(#paint7_linear_2002_28200)" stroke="#261A11" stroke-miterlimit="10" stroke-width=".7"/>
  <path d="m53.44 46.93 6.93-3.31 8.25 0.81 8.47 4.04-9.03-2.84-6.74 1.03-7.21 4.04-4.09-1.67 3.42-2.1z" fill="url(#paint8_linear_2002_28200)" stroke="#261A11" stroke-miterlimit="10" stroke-width=".7"/>
  <path d="m145.1 46.93-6.92-2.77-6.63 0.8-9.6 3.51 10.1-2.84 6.21 0.67 6.76 4.4 4.23-1.67-4.15-2.1z" fill="url(#paint9_linear_2002_28200)" stroke="#261A11" stroke-miterlimit="10" stroke-width=".7"/>
  <path d="m54.65 57.02c0-9.01 5.63-10.91 11.07-10.91 8.35 0 20.49 6.1 20.49 15.62 0 7.15-9.95 11.48-16.15 10.89-7.09-0.71-15.41-5.18-15.41-15.6z" fill="url(#paint10_linear_2002_28200)" stroke="#261A11" stroke-miterlimit="10" stroke-width=".7"/>
  <path d="m142.6 56.31c0-8.19-4.7-9.29-9.4-9.29-9 0-24.01 7.39-24.01 16.44 0 5.64 9.21 9.48 16.77 9.48 8.93 0 16.64-8.11 16.64-16.63z" fill="url(#paint11_linear_2002_28200)" stroke="#261A11" stroke-miterlimit="10" stroke-width=".7"/>
  <path d="m56.76 58.02c0-7.06 3.85-9.29 8.03-9.29 7.52 0 17.33 4.74 17.33 12.33 0 5.54-7.21 9.6-12.5 9.1-6.1-0.6-12.86-4.44-12.86-12.14z" fill="url(#paint12_radial_2002_28200)" stroke="#7F5A00" stroke-miterlimit="10" stroke-width=".7"/>
  <path d="m139.8 57.42c0-6.46-3.85-8.3-8.11-8.3-7.43 0-18 4.57-18 12.2 0 5.1 7.96 8.5 13.21 8.5 6.69 0 12.9-6.01 12.9-12.4z" fill="url(#paint13_radial_2002_28200)" stroke="#7F5A00" stroke-miterlimit="10" stroke-width=".7"/>
  <path d="m64.74 57.02c0-4.41 3.07-6.01 5.69-6.01 4.25 0 6.78 2.88 6.78 6.32 0 3.8-2.88 6.39-6.03 6.39-3.37 0-6.44-2.59-6.44-6.7z" fill="url(#paint14_radial_2002_28200)"/>
  <path d="m119.1 57.11c0-4.33 3.51-6.41 6.58-6.41 3.69 0 6.49 2.57 6.49 6.14 0 3.84-3.15 6.62-6.3 6.62-3.69 0-6.77-2.78-6.77-6.35z" fill="url(#paint15_radial_2002_28200)"/>
  <path d="m97.77 77.52-9.19 15.57 9.51 14.92 9.53-14.92-9.85-15.57z" fill="url(#paint16_linear_2002_28200)" stroke="#B68500" stroke-miterlimit="10" stroke-width=".7"/>
  <path d="m97.81 82.26-4.8 10.16 4.8 5.7 5.06-5.7-5.06-10.16z" fill="#FDF4D0"/>
  <path d="m97.91 98.03v6.19" stroke="#F9D752" stroke-miterlimit="10" stroke-width=".7"/>
  <path d="m92.84 92.91h9.68" stroke="#F9D752" stroke-miterlimit="10" stroke-width=".7"/>
  <path d="m30.08 113.2 0.98-1.1 1.22 1.79" stroke="#F7D054" stroke-miterlimit="10" stroke-width=".7"/>
  <path d="m74.16 118-7.97 9.81-6.12-5.75 2.84-6.06-5.24-0.89-10.54 7.15-7.02 9.53-0.47 10.61 4.51 6.15 6.21 3.2 6.97 1.35 2.53 5.77 4.22-1.81 6.39 5.24 7.57 3.6 4.25 0.79-7.05-10.08 5.62 4.44 2.29-7.95 4.17 6.39-2.21-12.48-2.13-2.61 2.13-14.8-3.51-2.3-2.53-5.24-4.91-4.06z" fill="url(#paint17_linear_2002_28200)" opacity=".6"/>
  <path d="m134 116.4-4.9 3.59-2.02-1.4-3.34-0.6-3.15 2.8-1.94 4.91-5.05-1.65-4.42 2.16 3.15 5.57-1.75 6.11-5.69-2.8-1.69-7.29-4.47 4.58-6.15-4.58-1.93 2.1 1.93 9.49 7.47 7.15v5.2l-7.07-4.74 4.8 9.6 5.15 3.99-1.75 6.65 5.15 1.36 11.52 3.34 4.23-6.96 3.47 0.91 1.35-5.7 4.79 0.85 6.4-6.83-0.93-6.18 5.92 6.66 4.61 7.6 2-3.43 0.98-9.67-5.86-12.93 10.47 8.52 3.15-5.88-2.15-9-8.25-8.85-9.15-5.06-4.88 0.41z" fill="url(#paint18_linear_2002_28200)" opacity=".6"/>
  <defs>
    <linearGradient id="paint0_linear_2002_28200" x1="99.5" x2="99.5" y1="5" y2="200" gradientUnits="userSpaceOnUse">
      <stop stop-color="#FDF4D0" offset="0"/>
      <stop stop-color="#F4D794" offset=".2188"/>
      <stop stop-color="#F0D091" offset=".5052"/>
      <stop stop-color="#D6B787" offset=".7917"/>
      <stop stop-color="#917F72" offset="1"/>
    </linearGradient>
    <linearGradient id="paint1_linear_2002_28200" x1="100.4" x2="100.4" y1="127" y2="200" gradientUnits="userSpaceOnUse">
      <stop stop-color="#FDF4D0" offset="0"/>
      <stop stop-color="#F4D794" offset=".2188"/>
      <stop stop-color="#F0D091" offset=".5052"/>
      <stop stop-color="#D6B787" offset=".7917"/>
      <stop stop-color="#484848" offset="1"/>
    </linearGradient>
    <linearGradient id="paint2_linear_2002_28200" x1="98.85" x2="98.85" y1="7.066" y2="35.96" gradientUnits="userSpaceOnUse">
      <stop stop-color="#FDF4D0" offset="0"/>
      <stop stop-color="#F4D794" offset=".2188"/>
      <stop stop-color="#F0D091" offset=".5052"/>
      <stop stop-color="#D6B787" offset=".7917"/>
      <stop stop-color="#917F72" offset="1"/>
    </linearGradient>
    <linearGradient id="paint3_linear_2002_28200" x1="98.8" x2="98.8" y1="20.03" y2="125.4" gradientUnits="userSpaceOnUse">
      <stop stop-color="#484848" offset="0"/>
      <stop stop-color="#6E6E6E" offset=".526"/>
      <stop stop-color="#484848" offset=".8594"/>
    </linearGradient>
    <linearGradient id="paint4_linear_2002_28200" x1="44.02" x2="44.02" y1="22.64" y2="38.61" gradientUnits="userSpaceOnUse">
      <stop stop-color="#484848" offset="0"/>
      <stop stop-color="#261A11" offset="1"/>
    </linearGradient>
    <linearGradient id="paint5_linear_2002_28200" x1="151.8" x2="151.8" y1="22.64" y2="40.69" gradientUnits="userSpaceOnUse">
      <stop stop-color="#484848" offset="0"/>
      <stop stop-color="#261A11" offset="1"/>
    </linearGradient>
    <linearGradient id="paint6_linear_2002_28200" x1="65.53" x2="65.53" y1="32.68" y2="45.98" gradientUnits="userSpaceOnUse">
      <stop stop-color="#484848" offset="0"/>
      <stop stop-color="#261A11" offset="1"/>
    </linearGradient>
    <linearGradient id="paint7_linear_2002_28200" x1="132" x2="132" y1="32.68" y2="48.47" gradientUnits="userSpaceOnUse">
      <stop stop-color="#484848" offset="0"/>
      <stop stop-color="#261A11" offset="1"/>
    </linearGradient>
    <linearGradient id="paint8_linear_2002_28200" x1="64.06" x2="64.06" y1="43.44" y2="50.7" gradientUnits="userSpaceOnUse">
      <stop stop-color="#110A00" offset="0"/>
      <stop stop-color="#261A11" offset="1"/>
    </linearGradient>
    <linearGradient id="paint9_linear_2002_28200" x1="130.6" x2="130.6" y1="44.06" y2="50.7" gradientUnits="userSpaceOnUse">
      <stop stop-color="#110A00" offset="0"/>
      <stop stop-color="#261A11" offset="1"/>
    </linearGradient>
    <linearGradient id="paint10_linear_2002_28200" x1="70.43" x2="70.43" y1="46.11" y2="72.7" gradientUnits="userSpaceOnUse">
      <stop stop-color="#110A00" offset="0"/>
      <stop stop-color="#7F5A00" offset="1"/>
    </linearGradient>
    <linearGradient id="paint11_linear_2002_28200" x1="125.9" x2="125.9" y1="47.02" y2="72.94" gradientUnits="userSpaceOnUse">
      <stop stop-color="#110A00" offset="0"/>
      <stop stop-color="#7F5A00" offset="1"/>
    </linearGradient>
    <radialGradient id="paint12_radial_2002_28200" cx="0" cy="0" r="1" gradientTransform="translate(70.14 58.73) scale(13.05 12.89)" gradientUnits="userSpaceOnUse">
      <stop stop-color="#F7E67E" offset="0"/>
      <stop stop-color="#F0C338" offset=".4844"/>
      <stop stop-color="#9B741C" offset="1"/>
    </radialGradient>
    <radialGradient id="paint13_radial_2002_28200" cx="0" cy="0" r="1" gradientTransform="translate(127 58.73) scale(13.98 12.89)" gradientUnits="userSpaceOnUse">
      <stop stop-color="#F7E67E" offset="0"/>
      <stop stop-color="#F0C338" offset=".4844"/>
      <stop stop-color="#9B741C" offset="1"/>
    </radialGradient>
    <radialGradient id="paint14_radial_2002_28200" cx="0" cy="0" r="1" gradientTransform="translate(70.75 53.2) rotate(55.01) scale(7.281 6.606)" gradientUnits="userSpaceOnUse">
      <stop stop-color="#FDFEFE" offset="0"/>
      <stop stop-color="#0A0A0A" offset="1"/>
    </radialGradient>
    <radialGradient id="paint15_radial_2002_28200" cx="0" cy="0" r="1" gradientTransform="translate(126 52.89) rotate(56.35) scale(7.032 6.472)" gradientUnits="userSpaceOnUse">
      <stop stop-color="#FDFEFE" offset="0"/>
      <stop stop-color="#0A0A0A" offset="1"/>
    </radialGradient>
    <linearGradient id="paint16_linear_2002_28200" x1="98.1" x2="98.1" y1="77.52" y2="108" gradientUnits="userSpaceOnUse">
      <stop stop-color="#9B741C" offset="0"/>
      <stop stop-color="#F0C338" offset=".4844"/>
      <stop stop-color="#F7E67E" offset="1"/>
    </linearGradient>
    <linearGradient id="paint17_linear_2002_28200" x1="69.92" x2="69.92" y1="115.1" y2="166.7" gradientUnits="userSpaceOnUse">
      <stop stop-color="#FDF4D0" offset="0"/>
      <stop stop-color="#F4D794" offset=".2188"/>
      <stop stop-color="#F0D091" offset=".5052"/>
      <stop stop-color="#D6B787" offset=".7917"/>
      <stop stop-color="#917F72" offset="1"/>
    </linearGradient>
    <linearGradient id="paint18_linear_2002_28200" x1="121.8" x2="121.8" y1="115.8" y2="172" gradientUnits="userSpaceOnUse">
      <stop stop-color="#FDF4D0" offset="0"/>
      <stop stop-color="#F4D794" offset=".2188"/>
      <stop stop-color="#F0D091" offset=".5052"/>
      <stop stop-color="#D6B787" offset=".7917"/>
      <stop stop-color="#917F72" offset="1"/>
    </linearGradient>
  </defs>
</svg>